<svg width="192" height="192" viewBox="0 0 192 192" fill="none" xmlns="http://www.w3.org/2000/svg">
<rect width="192" height="192" rx="48" fill="url(#paint0_linear_2358_7)"/>
<path opacity="0.5" d="M143 74.7487C143 81.0384 141.377 86.8101 138.13 92.0639C134.883 97.3176 130.161 101.609 123.963 104.939C117.764 108.269 110.386 110.23 101.826 110.822L97.0669 137.572C95.2222 147.857 90.2046 153 82.0142 153C77.5131 153 73.3441 151.668 69.5071 149.004C65.7439 146.34 62.7186 142.271 60.4311 136.795C58.1437 131.319 57 124.585 57 116.594C57 101.572 59.3981 88.845 64.1943 78.4115C69.0643 67.904 75.5577 60.0604 83.6744 54.8806C91.8649 49.6269 100.867 47 110.681 47C117.617 47 123.483 48.2209 128.279 50.6628C133.149 53.1047 136.802 56.4346 139.237 60.6524C141.746 64.7962 143 69.4949 143 74.7487ZM103.819 99.3895C118.945 97.4656 126.508 89.585 126.508 75.7476C126.508 70.8639 124.885 66.9051 121.638 63.8712C118.465 60.7633 113.522 59.2094 106.807 59.2094C99.2068 59.2094 92.5659 61.6143 86.8842 66.4241C81.2763 71.2339 76.9228 77.9305 73.8237 86.5141C70.7984 95.0237 69.2857 104.754 69.2857 115.706C69.2857 120.294 69.7284 124.363 70.6139 127.915C71.5731 131.467 72.7538 134.242 74.1557 136.24C75.6315 138.164 77.0335 139.126 78.3616 139.126C80.2063 139.126 81.6083 136.573 82.5676 131.467L86.2201 110.489C83.3423 110.045 82.0879 109.86 82.4569 109.934C80.2432 109.564 78.8044 108.898 78.1403 107.936C77.4762 106.9 77.1441 105.605 77.1441 104.051C77.1441 102.423 77.5869 101.128 78.4723 100.166C79.4316 99.2045 80.7229 98.7236 82.3462 98.7236C83.0841 98.7236 83.6375 98.7606 84.0064 98.8346C85.7773 99.1305 87.1424 99.3155 88.1017 99.3895C89.0609 93.6178 90.426 85.8852 92.1969 76.1916C92.6396 73.6757 93.6358 71.8998 95.1853 70.8639C96.8087 69.7539 98.6903 69.199 100.83 69.199C103.265 69.199 104.999 69.6799 106.032 70.6419C107.139 71.5298 107.692 72.9728 107.692 74.9707C107.692 76.1546 107.619 77.1166 107.471 77.8565L103.819 99.3895Z" fill="white"/>
<path opacity="0.5" d="M140 71.7487C140 78.0384 138.377 83.8101 135.13 89.0639C131.883 94.3176 127.161 98.6094 120.963 101.939C114.764 105.269 107.386 107.23 98.8263 107.822L94.0669 134.572C92.2222 144.857 87.2046 150 79.0142 150C74.5131 150 70.3441 148.668 66.5071 146.004C62.7439 143.34 59.7186 139.271 57.4311 133.795C55.1437 128.319 54 121.585 54 113.594C54 98.5724 56.3981 85.845 61.1943 75.4115C66.0643 64.904 72.5577 57.0604 80.6744 51.8806C88.8649 46.6269 97.867 44 107.681 44C114.617 44 120.483 45.2209 125.279 47.6628C130.149 50.1047 133.802 53.4346 136.237 57.6524C138.746 61.7962 140 66.4949 140 71.7487ZM100.819 96.3895C115.945 94.4656 123.508 86.585 123.508 72.7476C123.508 67.8639 121.885 63.9051 118.638 60.8712C115.465 57.7633 110.522 56.2094 103.807 56.2094C96.2068 56.2094 89.5659 58.6143 83.8842 63.4241C78.2763 68.2339 73.9228 74.9305 70.8237 83.5141C67.7984 92.0237 66.2857 101.754 66.2857 112.706C66.2857 117.294 66.7284 121.363 67.6139 124.915C68.5731 128.467 69.7538 131.242 71.1557 133.24C72.6315 135.164 74.0335 136.126 75.3616 136.126C77.2063 136.126 78.6083 133.573 79.5676 128.467L83.2201 107.489C80.3423 107.045 79.0879 106.86 79.4569 106.934C77.2432 106.564 75.8044 105.898 75.1403 104.936C74.4762 103.9 74.1441 102.605 74.1441 101.051C74.1441 99.4234 74.5869 98.1284 75.4723 97.1665C76.4316 96.2045 77.7229 95.7236 79.3462 95.7236C80.0841 95.7236 80.6375 95.7606 81.0064 95.8346C82.7773 96.1305 84.1424 96.3155 85.1017 96.3895C86.0609 90.6178 87.426 82.8852 89.1969 73.1916C89.6396 70.6757 90.6358 68.8998 92.1853 67.8639C93.8087 66.7539 95.6903 66.199 97.8301 66.199C100.265 66.199 101.999 66.6799 103.032 67.6419C104.139 68.5298 104.692 69.9728 104.692 71.9707C104.692 73.1546 104.619 74.1166 104.471 74.8565L100.819 96.3895Z" fill="white"/>
<path d="M137 68.7487C137 75.0384 135.377 80.8101 132.13 86.0639C128.883 91.3176 124.161 95.6094 117.963 98.9393C111.764 102.269 104.386 104.23 95.8263 104.822L91.0669 131.572C89.2222 141.857 84.2046 147 76.0142 147C71.5131 147 67.3441 145.668 63.5071 143.004C59.7439 140.34 56.7186 136.271 54.4311 130.795C52.1437 125.319 51 118.585 51 110.594C51 95.5724 53.3981 82.845 58.1943 72.4115C63.0643 61.904 69.5577 54.0604 77.6744 48.8806C85.8649 43.6269 94.867 41 104.681 41C111.617 41 117.483 42.2209 122.279 44.6628C127.149 47.1047 130.802 50.4346 133.237 54.6524C135.746 58.7962 137 63.4949 137 68.7487ZM97.8185 93.3895C112.945 91.4656 120.508 83.585 120.508 69.7476C120.508 64.8639 118.885 60.9051 115.638 57.8712C112.465 54.7633 107.522 53.2094 100.807 53.2094C93.2068 53.2094 86.5659 55.6143 80.8842 60.4241C75.2763 65.2339 70.9228 71.9305 67.8237 80.5141C64.7984 89.0237 63.2857 98.7543 63.2857 109.706C63.2857 114.294 63.7284 118.363 64.6139 121.915C65.5731 125.467 66.7538 128.242 68.1557 130.24C69.6315 132.164 71.0335 133.126 72.3616 133.126C74.2063 133.126 75.6083 130.573 76.5676 125.467L80.2201 104.489C77.3423 104.045 76.0879 103.86 76.4569 103.934C74.2432 103.564 72.8044 102.898 72.1403 101.936C71.4762 100.9 71.1441 99.6052 71.1441 98.0513C71.1441 96.4234 71.5869 95.1284 72.4723 94.1665C73.4316 93.2045 74.7229 92.7236 76.3462 92.7236C77.0841 92.7236 77.6375 92.7606 78.0064 92.8346C79.7773 93.1305 81.1424 93.3155 82.1017 93.3895C83.0609 87.6178 84.426 79.8852 86.1969 70.1916C86.6396 67.6757 87.6358 65.8998 89.1853 64.8639C90.8087 63.7539 92.6903 63.199 94.8301 63.199C97.2651 63.199 98.9991 63.6799 100.032 64.6419C101.139 65.5298 101.692 66.9728 101.692 68.9707C101.692 70.1546 101.619 71.1166 101.471 71.8565L97.8185 93.3895Z" fill="white"/>
<defs>
<linearGradient id="paint0_linear_2358_7" x1="0" y1="0" x2="210.5" y2="210.5" gradientUnits="userSpaceOnUse">
<stop stop-color="#FFDC80"/>
<stop offset="0.147898" stop-color="#FCAF45"/>
<stop offset="0.258421" stop-color="#F77737"/>
<stop offset="0.367305" stop-color="#F56040"/>
<stop offset="0.530821" stop-color="#FD1D1D"/>
<stop offset="0.650649" stop-color="#C13584"/>
<stop offset="0.779215" stop-color="#833AB4"/>
<stop offset="0.900292" stop-color="#5851DB"/>
<stop offset="1" stop-color="#405DE6"/>
</linearGradient>
</defs>
</svg>
