<svg width="311" height="170" viewBox="0 0 311 170" fill="none" xmlns="http://www.w3.org/2000/svg">
<path opacity="0.5" fill-rule="evenodd" clip-rule="evenodd" d="M96.824 54.968C100.579 48.9093 102.456 42.2533 102.456 35C102.456 28.9413 101.005 23.5227 98.104 18.744C95.288 13.88 91.064 10.04 85.432 7.224C79.8853 4.408 73.1013 3 65.08 3C53.7307 3 43.32 6.02933 33.848 12.088C24.4613 18.0613 16.952 27.1067 11.32 39.224C5.77333 51.256 3 65.9333 3 83.256C3 92.472 4.32267 100.237 6.968 106.552C9.61334 112.867 13.112 117.56 17.464 120.632C21.9013 123.704 26.7227 125.24 31.928 125.24C41.4 125.24 47.2027 119.309 49.336 107.448L54.84 76.6C64.7387 75.9173 73.272 73.656 80.44 69.816C87.608 65.976 93.0693 61.0267 96.824 54.968ZM83.384 36.152C83.384 52.1093 74.6373 61.1973 57.144 63.416L61.368 38.584C61.5387 37.7307 61.624 36.6213 61.624 35.256C61.624 32.952 60.984 31.288 59.704 30.264C58.5093 29.1547 56.504 28.6 53.688 28.6C51.2133 28.6 49.0373 29.24 47.16 30.52C45.368 31.7147 44.216 33.7627 43.704 36.664C41.656 47.8427 40.0773 56.76 38.968 63.416C37.8587 63.3307 36.28 63.1173 34.232 62.776C33.8053 62.6907 33.1653 62.648 32.312 62.648C30.4347 62.648 28.9413 63.2027 27.832 64.312C26.808 65.4213 26.296 66.9147 26.296 68.792C26.296 70.584 26.68 72.0773 27.448 73.272C28.216 74.3813 29.88 75.1493 32.44 75.576C32.0133 75.4907 33.464 75.704 36.792 76.216L32.568 100.408C31.4587 106.296 29.8373 109.24 27.704 109.24C26.168 109.24 24.5467 108.131 22.84 105.912C21.2187 103.608 19.8533 100.408 18.744 96.312C17.72 92.216 17.208 87.5227 17.208 82.232C17.208 69.6027 18.9573 58.3813 22.456 48.568C26.04 38.6693 31.0747 30.9467 37.56 25.4C44.1307 19.8533 51.8107 17.08 60.6 17.08C68.3653 17.08 74.0827 18.872 77.752 22.456C81.5067 25.9547 83.384 30.52 83.384 36.152ZM290.814 114.744C286.377 114.744 282.963 113.72 280.574 111.672C278.27 109.624 277.118 107.32 277.118 104.76C277.118 102.542 277.929 100.622 279.55 99.0004C281.171 97.3791 283.561 96.5684 286.718 96.5684C287.827 96.5684 289.107 96.6964 290.558 96.9524L294.014 97.3364C293.929 95.1178 293.417 93.0271 292.478 91.0644C291.625 89.1018 290.515 87.2244 289.15 85.4324C287.785 83.5551 286.505 81.9338 285.31 80.5684C282.665 85.6031 280.019 89.7844 277.374 93.1124C276.994 93.6069 276.608 94.0976 276.216 94.5845C275.88 95.2693 275.473 95.8876 274.996 96.4396C273.791 97.9059 272.392 99.3287 270.801 100.708C270.187 101.341 269.562 101.966 268.926 102.584C267.812 103.699 266.652 104.409 265.448 104.715C264.225 105.514 262.927 106.297 261.556 107.064C255.839 110.306 249.695 111.928 243.124 111.928C234.164 111.928 227.21 109.496 222.26 104.632C220.39 102.793 218.872 100.699 217.709 98.3484C211.989 102.217 207.681 105.165 204.786 107.192L196.594 112.696C193.351 130.36 189.085 144.226 183.794 154.296C178.589 164.45 171.933 169.528 163.826 169.528C159.474 169.528 155.933 168.162 153.202 165.432C150.471 162.786 149.106 159.288 149.106 154.936C149.106 148.877 151.495 142.349 156.274 135.352C161.053 128.44 170.013 119.906 183.154 109.752L183.922 104.76C182.471 107.064 180.551 108.856 178.162 110.136C175.858 111.33 173.554 111.928 171.25 111.928C165.959 111.928 161.735 110.008 158.578 106.168C157.929 105.378 157.346 104.538 156.83 103.647C155.366 105.018 153.87 106.285 152.341 107.448C148.416 110.434 144.618 111.928 140.949 111.928C138.133 111.928 135.53 110.989 133.141 109.112C130.837 107.149 129.088 104.504 127.893 101.176C123.456 108.344 117.866 111.928 111.125 111.928C105.834 111.928 101.61 110.008 98.453 106.168C95.2957 102.328 93.717 97.2931 93.717 91.0638C93.717 84.2371 95.2957 77.7945 98.453 71.7358C101.61 65.5918 105.792 60.6851 110.997 57.0158C116.288 53.2611 121.877 51.3838 127.765 51.3838C129.642 51.3838 130.88 51.7678 131.477 52.5358C132.16 53.2185 132.714 54.4985 133.141 56.3758C134.933 56.0345 136.81 55.8638 138.773 55.8638C142.954 55.8638 145.045 57.3571 145.045 60.3438C145.045 62.1358 144.405 66.4025 143.125 73.1438C141.162 82.9571 140.181 89.7838 140.181 93.6238C140.181 94.9038 140.48 95.9278 141.077 96.6958C141.76 97.4638 142.613 97.8478 143.637 97.8478C145.258 97.8478 147.221 96.8238 149.525 94.7758C150.74 93.6504 152.181 92.1689 153.848 90.3311C153.957 83.7757 155.534 77.5773 158.578 71.7358C161.735 65.5918 165.917 60.6851 171.122 57.0158C176.413 53.2611 182.002 51.3838 187.89 51.3838C189.767 51.3838 191.005 51.7678 191.602 52.5358C192.285 53.2185 192.839 54.4985 193.266 56.3758C194.887 56.0345 196.765 55.8638 198.898 55.8638C201.031 55.8638 202.525 56.2051 203.378 56.8878C204.317 57.4851 204.786 58.7225 204.786 60.5998C204.786 61.6238 204.743 62.4345 204.658 63.0318C204.317 65.6771 203.25 72.3758 201.458 83.1278C201.117 85.1758 200.733 87.4371 200.306 89.9118C199.965 92.3011 199.581 94.8611 199.154 97.5918C204.564 93.3764 209.8 89.5658 214.863 86.1602C214.845 85.6678 214.836 85.1689 214.836 84.6637C214.836 78.7757 216.074 73.3143 218.548 68.2796C221.023 63.1596 224.436 59.1063 228.788 56.1197C233.226 53.133 238.218 51.6396 243.764 51.6396C248.714 51.6396 252.682 53.133 255.668 56.1197C258.655 59.021 260.148 62.989 260.148 68.0236C260.148 73.9116 258.015 78.989 253.748 83.2557C249.567 87.437 242.442 90.765 232.372 93.2396C234.506 97.165 238.559 99.1276 244.532 99.1276C248.372 99.1276 252.724 97.805 257.588 95.1596C260.597 93.4994 263.354 91.5394 265.859 89.2797C269.116 85.1153 271.674 81.5715 273.534 78.6484C275.07 76.1738 276.606 73.2298 278.142 69.8164C279.763 66.4031 281.854 61.7524 284.414 55.8644C286.035 52.1098 289.406 50.2324 294.526 50.2324C296.915 50.2324 298.579 50.4458 299.518 50.8724C300.457 51.2991 300.926 51.9818 300.926 52.9204C300.926 53.4324 300.755 54.2431 300.414 55.3524C300.073 56.4618 299.603 57.5711 299.006 58.6804C297.47 61.7524 296.702 64.3551 296.702 66.4884C296.702 67.7684 297.129 69.1764 297.982 70.7124C298.921 72.2484 300.329 74.1684 302.206 76.4724C304.937 80.0564 306.985 83.1284 308.35 85.6884C309.801 88.1631 310.526 90.8938 310.526 93.8804C310.526 97.4644 309.673 100.878 307.966 104.12C306.345 107.278 304.041 109.838 301.054 111.8C298.067 113.763 294.654 114.744 290.814 114.744ZM241.588 64.1836C238.431 64.1836 235.743 66.0183 233.524 69.6876C231.391 73.357 230.324 77.7943 230.324 82.9997V83.2557C235.359 82.061 239.327 80.269 242.228 77.8796C245.13 75.4903 246.58 72.717 246.58 69.5597C246.58 67.9383 246.111 66.6583 245.172 65.7197C244.319 64.6956 243.124 64.1836 241.588 64.1836ZM181.49 95.4158C179.698 97.8051 177.821 98.9998 175.858 98.9998C173.981 98.9998 172.487 98.3598 171.378 97.0798C170.354 95.7998 169.842 93.8371 169.842 91.1918C169.842 86.4131 170.738 81.8905 172.53 77.6238C174.322 73.3571 176.711 69.9438 179.698 67.3838C182.685 64.7385 185.927 63.3731 189.426 63.2878L185.33 85.1758C184.562 89.6131 183.282 93.0265 181.49 95.4158ZM172.402 149.432C169.757 154.552 167.367 157.112 165.234 157.112C163.954 157.112 163.015 156.642 162.418 155.704C161.906 154.765 161.65 153.57 161.65 152.12C161.65 148.706 163.101 144.738 166.002 140.216C168.903 135.693 173.639 130.616 180.21 124.984C177.735 136.162 175.133 144.312 172.402 149.432ZM115.733 98.9998C117.61 98.9998 119.402 97.8905 121.109 95.6718C122.816 93.4531 124.053 90.5091 124.821 86.8398L129.557 63.2878C125.973 63.3731 122.645 64.7385 119.573 67.3838C116.586 69.9438 114.197 73.3571 112.405 77.6238C110.613 81.8905 109.717 86.4131 109.717 91.1918C109.717 93.8371 110.229 95.7998 111.253 97.0798C112.362 98.3598 113.856 98.9998 115.733 98.9998Z" fill="url(#paint0_linear_2358_32)"/>
<path fill-rule="evenodd" clip-rule="evenodd" d="M93.824 51.968C97.5787 45.9093 99.456 39.2533 99.456 32C99.456 25.9413 98.0053 20.5227 95.104 15.744C92.288 10.88 88.064 7.04 82.432 4.224C76.8853 1.408 70.1013 0 62.08 0C50.7307 0 40.32 3.02933 30.848 9.088C21.4613 15.0613 13.952 24.1067 8.32 36.224C2.77333 48.256 0 62.9333 0 80.256C0 89.472 1.32267 97.2373 3.968 103.552C6.61334 109.867 10.112 114.56 14.464 117.632C18.9013 120.704 23.7227 122.24 28.928 122.24C38.4 122.24 44.2027 116.309 46.336 104.448L51.84 73.6C61.7387 72.9173 70.272 70.656 77.44 66.816C84.608 62.976 90.0693 58.0267 93.824 51.968ZM80.384 33.152C80.384 49.1093 71.6373 58.1973 54.144 60.416L58.368 35.584C58.5387 34.7307 58.624 33.6213 58.624 32.256C58.624 29.952 57.984 28.288 56.704 27.264C55.5093 26.1547 53.504 25.6 50.688 25.6C48.2133 25.6 46.0373 26.24 44.16 27.52C42.368 28.7147 41.216 30.7627 40.704 33.664C38.656 44.8427 37.0773 53.76 35.968 60.416C34.8587 60.3307 33.28 60.1173 31.232 59.776C30.8053 59.6907 30.1653 59.648 29.312 59.648C27.4347 59.648 25.9413 60.2027 24.832 61.312C23.808 62.4213 23.296 63.9147 23.296 65.792C23.296 67.584 23.68 69.0773 24.448 70.272C25.216 71.3813 26.88 72.1493 29.44 72.576C29.0133 72.4907 30.464 72.704 33.792 73.216L29.568 97.408C28.4587 103.296 26.8373 106.24 24.704 106.24C23.168 106.24 21.5467 105.131 19.84 102.912C18.2187 100.608 16.8533 97.408 15.744 93.312C14.72 89.216 14.208 84.5227 14.208 79.232C14.208 66.6027 15.9573 55.3813 19.456 45.568C23.04 35.6693 28.0747 27.9467 34.56 22.4C41.1307 16.8533 48.8107 14.08 57.6 14.08C65.3653 14.08 71.0827 15.872 74.752 19.456C78.5067 22.9547 80.384 27.52 80.384 33.152ZM287.814 111.744C283.377 111.744 279.963 110.72 277.574 108.672C275.27 106.624 274.118 104.32 274.118 101.76C274.118 99.5418 274.929 97.6218 276.55 96.0004C278.171 94.3791 280.561 93.5684 283.718 93.5684C284.827 93.5684 286.107 93.6964 287.558 93.9524L291.014 94.3364C290.929 92.1178 290.417 90.0271 289.478 88.0644C288.625 86.1018 287.515 84.2244 286.15 82.4324C284.785 80.5551 283.505 78.9338 282.31 77.5684C279.665 82.6031 277.019 86.7844 274.374 90.1124C273.994 90.6069 273.608 91.0976 273.216 91.5845C272.88 92.2693 272.473 92.8876 271.996 93.4396C270.791 94.9059 269.392 96.3287 267.801 97.7079C267.187 98.3407 266.562 98.9662 265.926 99.5844C264.812 100.699 263.652 101.409 262.448 101.715C261.225 102.514 259.927 103.297 258.556 104.064C252.839 107.306 246.695 108.928 240.124 108.928C231.164 108.928 224.21 106.496 219.26 101.632C217.39 99.7932 215.872 97.6988 214.709 95.3484C208.989 99.2172 204.681 102.165 201.786 104.192L193.594 109.696C190.351 127.36 186.085 141.226 180.794 151.296C175.589 161.45 168.933 166.528 160.826 166.528C156.474 166.528 152.933 165.162 150.202 162.432C147.471 159.786 146.106 156.288 146.106 151.936C146.106 145.877 148.495 139.349 153.274 132.352C158.053 125.44 167.013 116.906 180.154 106.752L180.922 101.76C179.471 104.064 177.551 105.856 175.162 107.136C172.858 108.33 170.554 108.928 168.25 108.928C162.959 108.928 158.735 107.008 155.578 103.168C154.929 102.378 154.346 101.538 153.83 100.647C152.366 102.018 150.87 103.285 149.341 104.448C145.416 107.434 141.618 108.928 137.949 108.928C135.133 108.928 132.53 107.989 130.141 106.112C127.837 104.149 126.088 101.504 124.893 98.1758C120.456 105.344 114.866 108.928 108.125 108.928C102.834 108.928 98.6104 107.008 95.453 103.168C92.2957 99.3278 90.717 94.2931 90.717 88.0638C90.717 81.2371 92.2957 74.7945 95.453 68.7358C98.6104 62.5918 102.792 57.6851 107.997 54.0158C113.288 50.2611 118.877 48.3838 124.765 48.3838C126.642 48.3838 127.88 48.7678 128.477 49.5358C129.16 50.2185 129.714 51.4985 130.141 53.3758C131.933 53.0345 133.81 52.8638 135.773 52.8638C139.954 52.8638 142.045 54.3571 142.045 57.3438C142.045 59.1358 141.405 63.4025 140.125 70.1438C138.162 79.9571 137.181 86.7838 137.181 90.6238C137.181 91.9038 137.48 92.9278 138.077 93.6958C138.76 94.4638 139.613 94.8478 140.637 94.8478C142.258 94.8478 144.221 93.8238 146.525 91.7758C147.74 90.6504 149.181 89.1689 150.848 87.3311C150.957 80.7757 152.534 74.5773 155.578 68.7358C158.735 62.5918 162.917 57.6851 168.122 54.0158C173.413 50.2611 179.002 48.3838 184.89 48.3838C186.767 48.3838 188.005 48.7678 188.602 49.5358C189.285 50.2185 189.839 51.4985 190.266 53.3758C191.887 53.0345 193.765 52.8638 195.898 52.8638C198.031 52.8638 199.525 53.2051 200.378 53.8878C201.317 54.4851 201.786 55.7225 201.786 57.5998C201.786 58.6238 201.743 59.4345 201.658 60.0318C201.317 62.6771 200.25 69.3758 198.458 80.1278C198.117 82.1758 197.733 84.4371 197.306 86.9118C196.965 89.3011 196.581 91.8611 196.154 94.5918C201.564 90.3764 206.8 86.5658 211.863 83.1602C211.845 82.6678 211.836 82.1689 211.836 81.6637C211.836 75.7757 213.074 70.3143 215.548 65.2796C218.023 60.1596 221.436 56.1063 225.788 53.1197C230.226 50.133 235.218 48.6396 240.764 48.6396C245.714 48.6396 249.682 50.133 252.668 53.1197C255.655 56.021 257.148 59.989 257.148 65.0236C257.148 70.9116 255.015 75.989 250.748 80.2557C246.567 84.437 239.442 87.765 229.372 90.2396C231.506 94.165 235.559 96.1276 241.532 96.1276C245.372 96.1276 249.724 94.805 254.588 92.1596C257.597 90.4994 260.354 88.5394 262.859 86.2797C266.116 82.1153 268.674 78.5715 270.534 75.6484C272.07 73.1738 273.606 70.2298 275.142 66.8164C276.763 63.4031 278.854 58.7524 281.414 52.8644C283.035 49.1098 286.406 47.2324 291.526 47.2324C293.915 47.2324 295.579 47.4458 296.518 47.8724C297.457 48.2991 297.926 48.9818 297.926 49.9204C297.926 50.4324 297.755 51.2431 297.414 52.3524C297.073 53.4618 296.603 54.5711 296.006 55.6804C294.47 58.7524 293.702 61.3551 293.702 63.4884C293.702 64.7684 294.129 66.1764 294.982 67.7124C295.921 69.2484 297.329 71.1684 299.206 73.4724C301.937 77.0564 303.985 80.1284 305.35 82.6884C306.801 85.1631 307.526 87.8938 307.526 90.8804C307.526 94.4644 306.673 97.8778 304.966 101.12C303.345 104.278 301.041 106.838 298.054 108.8C295.067 110.763 291.654 111.744 287.814 111.744ZM238.588 61.1836C235.431 61.1836 232.743 63.0183 230.524 66.6876C228.391 70.357 227.324 74.7943 227.324 79.9997V80.2557C232.359 79.061 236.327 77.269 239.228 74.8796C242.13 72.4903 243.58 69.717 243.58 66.5597C243.58 64.9383 243.111 63.6583 242.172 62.7197C241.319 61.6956 240.124 61.1836 238.588 61.1836ZM178.49 92.4158C176.698 94.8051 174.821 95.9998 172.858 95.9998C170.981 95.9998 169.487 95.3598 168.378 94.0798C167.354 92.7998 166.842 90.8371 166.842 88.1918C166.842 83.4131 167.738 78.8905 169.53 74.6238C171.322 70.3571 173.711 66.9438 176.698 64.3838C179.685 61.7385 182.927 60.3731 186.426 60.2878L182.33 82.1758C181.562 86.6131 180.282 90.0265 178.49 92.4158ZM169.402 146.432C166.757 151.552 164.367 154.112 162.234 154.112C160.954 154.112 160.015 153.642 159.418 152.704C158.906 151.765 158.65 150.57 158.65 149.12C158.65 145.706 160.101 141.738 163.002 137.216C165.903 132.693 170.639 127.616 177.21 121.984C174.735 133.162 172.133 141.312 169.402 146.432ZM112.733 95.9998C114.61 95.9998 116.402 94.8905 118.109 92.6718C119.816 90.4531 121.053 87.5091 121.821 83.8398L126.557 60.2878C122.973 60.3731 119.645 61.7385 116.573 64.3838C113.586 66.9438 111.197 70.3571 109.405 74.6238C107.613 78.8905 106.717 83.4131 106.717 88.1918C106.717 90.8371 107.229 92.7998 108.253 94.0798C109.362 95.3598 110.856 95.9998 112.733 95.9998Z" fill="url(#paint1_linear_2358_32)"/>
<defs>
<linearGradient id="paint0_linear_2358_32" x1="3" y1="3" x2="155.896" y2="285.353" gradientUnits="userSpaceOnUse">
<stop stop-color="#FFDC80"/>
<stop offset="0.147898" stop-color="#FCAF45"/>
<stop offset="0.258421" stop-color="#F77737"/>
<stop offset="0.367305" stop-color="#F56040"/>
<stop offset="0.530821" stop-color="#FD1D1D"/>
<stop offset="0.650649" stop-color="#C13584"/>
<stop offset="0.779215" stop-color="#833AB4"/>
<stop offset="0.900292" stop-color="#5851DB"/>
<stop offset="1" stop-color="#405DE6"/>
</linearGradient>
<linearGradient id="paint1_linear_2358_32" x1="0" y1="0" x2="152.896" y2="282.353" gradientUnits="userSpaceOnUse">
<stop stop-color="#FFDC80"/>
<stop offset="0.147898" stop-color="#FCAF45"/>
<stop offset="0.258421" stop-color="#F77737"/>
<stop offset="0.367305" stop-color="#F56040"/>
<stop offset="0.530821" stop-color="#FD1D1D"/>
<stop offset="0.650649" stop-color="#C13584"/>
<stop offset="0.779215" stop-color="#833AB4"/>
<stop offset="0.900292" stop-color="#5851DB"/>
<stop offset="1" stop-color="#405DE6"/>
</linearGradient>
</defs>
</svg>
